<?xml version="1.0" encoding="utf-8" ?>
<svg baseProfile="full" height="100%" version="1.1" viewBox="0 0 800 600" width="100%" xmlns="http://www.w3.org/2000/svg" xmlns:ev="http://www.w3.org/2001/xml-events" xmlns:xlink="http://www.w3.org/1999/xlink"><defs><linearGradient id="grad" x1="0" x2="0" y1="0" y2="1"><stop offset="0" stop-color="white" /><stop offset="1" stop-color="#f0f3bf" /></linearGradient></defs><polygon fill="url(#grad)" points="100,225 200,300 300,225 200,150" stroke="black" stroke-width="1.2" /><polygon fill="url(#grad)" points="100,225 0,300 200,300" stroke="black" stroke-width="1.2" /><polygon fill="url(#grad)" points="0,150 0,300 100,225" stroke="black" stroke-width="1.2" /><polygon fill="url(#grad)" points="0,150 100,225 200,150 100,75" stroke="black" stroke-width="1.2" /><polygon fill="url(#grad)" points="0,0 0,150 100,75" stroke="black" stroke-width="1.2" /><polygon fill="url(#grad)" points="0,0 100,75 200,0" stroke="black" stroke-width="1.2" /><polygon fill="url(#grad)" points="100,75 200,150 300,75 200,0" stroke="black" stroke-width="1.2" /><polygon fill="url(#grad)" points="200,0 300,75 400,0" stroke="black" stroke-width="1.2" /><polygon fill="url(#grad)" points="300,75 400,150 400,0" stroke="black" stroke-width="1.2" /><polygon fill="url(#grad)" points="300,75 200,150 300,225 400,150" stroke="black" stroke-width="1.2" /><polygon fill="url(#grad)" points="300,225 400,300 400,150" stroke="black" stroke-width="1.2" /><polygon fill="url(#grad)" points="300,225 200,300 400,300" stroke="black" stroke-width="1.2" /><text fill="teal" font-size="12px" font-weight="bold" x="195" y="130">7</text><text fill="teal" font-size="12px" font-weight="bold" x="97" y="60">8</text><text fill="teal" font-size="12px" font-weight="bold" x="75" y="78">9</text><text fill="teal" font-size="12px" font-weight="bold" x="170" y="152">10</text><text fill="teal" font-size="12px" font-weight="bold" x="75" y="227">11</text><text fill="teal" font-size="12px" font-weight="bold" x="95" y="245">12</text><text fill="teal" font-size="12px" font-weight="bold" x="195" y="170">1</text><text fill="teal" font-size="12px" font-weight="bold" x="295" y="245">2</text><text fill="teal" font-size="12px" font-weight="bold" x="320" y="227">3</text><text fill="teal" font-size="12px" font-weight="bold" x="220" y="152">4</text><text fill="teal" font-size="12px" font-weight="bold" x="320" y="77">5</text><text fill="teal" font-size="12px" font-weight="bold" x="295" y="60">6</text><text fill="#FF0000" font-size="10px" x="208.0" y="75.0">Ma</text><text fill="#C0C0C0" font-size="10px" x="118.0" y="30.0">Mo</text><text fill="#708090" font-size="10px" x="48.0" y="75.0">Ra</text><text fill="#000000" font-size="10px" x="108.0" y="150.0">Ve</text><text fill="#4B4B4B" font-size="10px" x="72.0" y="150.0">Sa</text><text fill="#0000FF" font-size="10px" x="48.0" y="225.0">Ju</text><text fill="#FFD700" font-size="10px" x="378.0" y="75.0">Su</text><text fill="#008000" font-size="10px" x="308.0" y="30.0">Me</text><text fill="#A52A2A" font-size="10px" x="272.0" y="30.000000000000004">Ke</text></svg>