<?xml version="1.0" encoding="utf-8" ?>
<svg baseProfile="full" height="100%" version="1.1" viewBox="0 0 800 600" width="100%" xmlns="http://www.w3.org/2000/svg" xmlns:ev="http://www.w3.org/2001/xml-events" xmlns:xlink="http://www.w3.org/1999/xlink"><defs><linearGradient id="grad" x1="0" x2="0" y1="0" y2="1"><stop offset="0" stop-color="white" /><stop offset="1" stop-color="#f0f3bf" /></linearGradient></defs><polygon fill="url(#grad)" points="100,225 200,300 300,225 200,150" stroke="#111" stroke-width="1.2" /><polygon fill="url(#grad)" points="100,225 0,300 200,300" stroke="#111" stroke-width="1.2" /><polygon fill="url(#grad)" points="0,150 0,300 100,225" stroke="#111" stroke-width="1.2" /><polygon fill="url(#grad)" points="0,150 100,225 200,150 100,75" stroke="#111" stroke-width="1.2" /><polygon fill="url(#grad)" points="0,0 0,150 100,75" stroke="#111" stroke-width="1.2" /><polygon fill="url(#grad)" points="0,0 100,75 200,0" stroke="#111" stroke-width="1.2" /><polygon fill="url(#grad)" points="100,75 200,150 300,75 200,0" stroke="#111" stroke-width="1.2" /><polygon fill="url(#grad)" points="200,0 300,75 400,0" stroke="#111" stroke-width="1.2" /><polygon fill="url(#grad)" points="300,75 400,150 400,0" stroke="#111" stroke-width="1.2" /><polygon fill="url(#grad)" points="300,75 200,150 300,225 400,150" stroke="#111" stroke-width="1.2" /><polygon fill="url(#grad)" points="300,225 400,300 400,150" stroke="#111" stroke-width="1.2" /><polygon fill="url(#grad)" points="300,225 200,300 400,300" stroke="#111" stroke-width="1.2" /><text fill="#666" font-size="11px" x="200" y="160">H1</text><text fill="#666" font-size="11px" x="60" y="292">H2</text><text fill="#666" font-size="11px" x="20" y="220">H3</text><text fill="#666" font-size="11px" x="120" y="178">H4</text><text fill="#666" font-size="11px" x="24" y="108">H5</text><text fill="#666" font-size="11px" x="100" y="20">H6</text><text fill="#666" font-size="11px" x="200" y="20">H7</text><text fill="#666" font-size="11px" x="300" y="20">H8</text><text fill="#666" font-size="11px" x="380" y="108">H9</text><text fill="#666" font-size="11px" x="330" y="178">H10</text><text fill="#666" font-size="11px" x="380" y="220">H11</text><text fill="#666" font-size="11px" x="340" y="292">H12</text><text fill="#111" font-size="13px" font-weight="bold" text-anchor="middle" x="200" y="150">Ta</text><text fill="#b00020" font-size="11px" text-anchor="middle" x="200" y="164">Asc Ta 5°00'</text><text fill="#111" font-size="13px" font-weight="bold" text-anchor="middle" x="95" y="290">Ge</text><text fill="#111" font-size="13px" font-weight="bold" text-anchor="middle" x="40" y="220">Cn</text><text fill="#111" font-size="13px" font-weight="bold" text-anchor="middle" x="135" y="175">Le</text><text fill="#111" font-size="13px" font-weight="bold" text-anchor="middle" x="54" y="108">Vi</text><text fill="#111" font-size="13px" font-weight="bold" text-anchor="middle" x="135" y="35">Li</text><text fill="#111" font-size="13px" font-weight="bold" text-anchor="middle" x="200" y="38">Sc</text><text fill="#111" font-size="13px" font-weight="bold" text-anchor="middle" x="265" y="35">Sg</text><text fill="#111" font-size="13px" font-weight="bold" text-anchor="middle" x="346" y="108">Cp</text><text fill="#111" font-size="13px" font-weight="bold" text-anchor="middle" x="265" y="175">Aq</text><text fill="#111" font-size="13px" font-weight="bold" text-anchor="middle" x="346" y="220">Pi</text><text fill="#111" font-size="13px" font-weight="bold" text-anchor="middle" x="305" y="290">Ar</text><text fill="#000" font-size="10px" text-anchor="middle" x="110.31711196051307" y="285.37549124888847">Me 6°06'</text><text fill="#000" font-size="10px" text-anchor="middle" x="76.1040839880028" y="291.9860408020854">Ve 22°00'</text><text fill="#000" font-size="10px" text-anchor="middle" x="118.81966011250105" y="163.24429495415055">Ju 25°30'</text><text fill="#000" font-size="10px" text-anchor="middle" x="150.82835732740782" y="37.33732845699855">Su 8°12'</text><text fill="#000" font-size="10px" text-anchor="middle" x="148.85040392100683" y="48.00639501264507">Ke 11°06'</text><text fill="#000" font-size="10px" text-anchor="middle" x="260.02620225670296" y="54.371663222572636">Sa 16°12'</text><text fill="#000" font-size="10px" text-anchor="middle" x="250.7105464073439" y="188.99326681026727">Ma 18°48'</text><text fill="#000" font-size="10px" text-anchor="middle" x="316.6634980387426" y="300.95275369485904">Ra 11°06'</text><text fill="#000" font-size="10px" text-anchor="middle" x="314.84251317808946" y="306.25192094304964">Mo 12°24'</text></svg>