<?xml version="1.0" encoding="UTF-8"?>
<!DOCTYPE svg PUBLIC "-//W3C//DTD SVG 1.1//EN" "http://www.w3.org/Graphics/SVG/1.1/DTD/svg11.dtd">
<!-- Creator: CorelDRAW 2017 -->
<svg xmlns="http://www.w3.org/2000/svg" xml:space="preserve" width="850px" height="850px" version="1.1" style="shape-rendering:geometricPrecision; text-rendering:geometricPrecision; image-rendering:optimizeQuality; fill-rule:evenodd; clip-rule:evenodd"
viewBox="0 0 444790 444790"
 xmlns:xlink="http://www.w3.org/1999/xlink">
 <defs>
  <style type="text/css">
   <![CDATA[
    .str0 {stroke:#373435;stroke-width:2180}
    .fil0 {fill:none;fill-rule:nonzero}
    .fil1 {fill:#373435;fill-rule:nonzero}
   ]]>
  </style>
 </defs>
 <g id="Layer_x0020_1">
  <metadata id="CorelCorpID_0Corel-Layer"/>
  <g id="_2665072604512">
   <polygon class="fil0 str0" points="1090,443700 443700,443700 443700,1090 1090,1090 "/>
   <line class="fil0 str0" x1="1090" y1="1090" x2="443700" y2= "443700" />
   <line class="fil0 str0" x1="443700" y1="1090" x2="1090" y2= "443700" />
   <line class="fil0 str0" x1="221650" y1="1290" x2="1290" y2= "221650" />
   <line class="fil0 str0" x1="223140" y1="1290" x2="443500" y2= "221650" />
   <line class="fil0 str0" x1="1290" y1="223140" x2="221650" y2= "443500" />
   <line class="fil0 str0" x1="443500" y1="223140" x2="223140" y2= "443500" />
   <path class="fil1" d="M111250 81850c1580,0 2630,-510 3560,-1510 870,-900 1550,-1970 1550,-4310 0,-1630 -1300,-4410 -4440,-4410 -1450,0 -2530,450 -3330,1150 620,-4110 3940,-6870 5940,-7770 150,-70 230,-200 230,-400 0,-180 -150,-250 -300,-250 -180,0 -530,100 -930,270 -1130,450 -2480,1280 -3690,2440 -2650,2580 -3810,5660 -3810,8800 0,1300 360,3250 1610,4610 750,900 1930,1380 3610,1380zm150 -800c-3040,0 -3240,-3110 -3240,-4390 0,-1060 200,-2080 560,-2740 300,-620 1000,-1230 2480,-1230 1930,0 3030,1890 3030,4120 0,3960 -2280,4240 -2830,4240z"/>
   <path class="fil1" d="M337160 81470c300,0 350,-80 350,-350l0 -4340 1930 0c330,0 400,-100 400,-250l0 -1200c0,-150 -120,-210 -300,-210l-2030 0 0 -10020c0,-580 -100,-750 -330,-750 -190,0 -390,200 -540,400l-8150 11230c-180,250 -250,350 -250,500 0,200 150,300 370,300l7000 0 0 4410c0,230 80,280 300,280l1250 0zm-1520 -6220l-4920 0c-450,0 -480,-250 -170,-670l4610 -6370c220,-330 480,-250 480,150l0 6890z"/>
   <path class="fil1" d="M102340 369270c0,450 0,5520 -20,5840 -50,1330 -100,1410 -1730,1410l-1150 0c-200,0 -350,20 -350,150l0 620c0,160 70,210 200,210 130,0 3660,-80 3890,-80 220,0 3630,0 3860,0 170,0 220,-50 220,-200l0 -580c0,-120 -80,-200 -250,-200l-910 0c-1620,0 -1720,-170 -1740,-1480 0,-330 -30,-5640 -30,-5940l0 -1050c0,-3240 80,-7180 80,-7400 0,-200 -30,-350 -180,-350 -130,0 -230,80 -360,150l-5190 2980c-170,100 -200,200 -150,300l200 460c50,100 150,100 260,70l1750 -580c400,-120 780,-200 1010,-200 470,0 570,560 590,1410 30,1980 0,3160 0,3480l0 980zm13270 8530c3240,0 5370,-3170 5370,-8900 0,-3820 -1710,-8600 -5390,-8600 -3210,0 -5600,3860 -5600,9600 0,3030 1560,7900 5620,7900zm30 -910c-880,0 -1830,-470 -2610,-2130 -550,-1150 -860,-2910 -860,-5290 0,-2080 100,-5020 1010,-6770 580,-1130 1280,-1500 2260,-1500 2130,0 3380,3450 3380,7140 0,3660 -230,5570 -780,6770 -670,1480 -1630,1780 -2400,1780z"/>
   <path class="fil1" d="M325180 369270c0,450 0,5520 -30,5840 -50,1330 -100,1410 -1730,1410l-1150 0c-200,0 -350,20 -350,150l0 620c0,160 70,210 200,210 130,0 3660,-80 3890,-80 220,0 3630,0 3860,0 170,0 220,-50 220,-200l0 -580c0,-120 -70,-200 -250,-200l-900 0c-1630,0 -1730,-170 -1750,-1480 0,-330 -30,-5640 -30,-5940l0 -1050c0,-3240 80,-7180 80,-7400 0,-200 -30,-350 -180,-350 -130,0 -230,80 -360,150l-5180 2980c-180,100 -200,200 -150,300l200 460c40,100 140,100 250,70l1760 -580c390,-120 770,-200 1000,-200 470,0 570,560 600,1410 20,1980 0,3160 0,3480l0 980zm14770 8150c750,0 1220,30 1370,350 100,220 100,250 330,250 460,0 250,0 380,-270l1630 -3910c100,-160 0,-260 -200,-360 -250,-130 -330,-100 -450,130 -560,920 -1210,2100 -2920,2100l-5080 0c1100,-970 3080,-2430 4790,-4380 2260,-2540 3110,-4340 3110,-6470 0,-2840 -2280,-4560 -4390,-4560 -3390,0 -4620,2780 -5010,3760 -100,220 -80,300 0,340l340 150c130,80 200,50 300,-120 430,-750 1230,-2410 3360,-2430 1810,-30 3170,1300 3240,3540 80,2180 -1080,4100 -3090,6260 -2000,2160 -4200,4090 -5380,5190 -130,130 -150,200 -80,380 80,150 150,150 280,150 90,0 390,-20 770,-50 380,-20 830,-50 1260,-50l5440 0z"/>
   <path class="fil1" d="M74510 102880c-1270,0 -1470,-120 -1420,-470 50,-380 -50,-450 -330,-450 -300,0 -330,20 -400,180l-1560 4030c-70,220 -70,250 150,370 180,110 350,130 480,-50 730,-1070 1050,-1750 2560,-1750l5940 0c-1430,2830 -5790,11160 -6220,12010 -320,680 -870,1710 -870,2330 0,550 350,930 970,930 460,0 950,-250 1260,-1280 1020,-3460 3130,-8090 3380,-8680 1000,-2480 3040,-6240 3190,-6490 150,-250 170,-320 170,-450 0,-150 -120,-230 -250,-230l-7050 0z"/>
   <path class="fil1" d="M367300 120010c3390,0 6270,-2280 6270,-5510 0,-2210 -1960,-3970 -3660,-4400 1300,-790 2810,-2150 2810,-4300 0,-1280 -980,-3290 -3710,-3290 -2840,0 -4360,2330 -4720,4060 -50,230 -20,350 30,380l450 100c100,30 170,-50 250,-250 530,-1430 1480,-2740 3340,-2740 1570,0 2560,1210 2560,2810 0,1930 -1660,3260 -3270,3560 -220,50 -300,100 -300,360 0,340 0,270 450,370 2030,480 3610,1960 3610,4490 0,1750 -1380,3430 -3680,3430 -1750,0 -2210,-750 -2330,-1020 -60,-130 -210,-1100 -1030,-1100 -430,0 -830,410 -830,1070 0,730 800,1980 3760,1980z"/>
   <path class="fil1" d="M76200 325420c-1060,0 -2210,450 -3190,1300 -950,820 -1850,2910 -1850,3860 0,2380 1180,5020 4630,5020 1490,0 2390,-610 3060,-1230l30 50c-550,4180 -3890,6920 -6070,7790 -130,50 -230,180 -230,360 0,250 180,350 380,350 170,0 530,-100 780,-180 1380,-450 2360,-1000 3610,-2100 2950,-2610 4080,-6070 4080,-9440 0,-770 -220,-2750 -1350,-4030 -1130,-1230 -2110,-1750 -3880,-1750zm70 790c2280,0 2910,2190 2910,4400 0,1020 -80,1850 -380,2480 -320,650 -1080,1430 -2530,1430 -1700,0 -3110,-1710 -3110,-4060 0,-2820 1630,-4250 3110,-4250z"/>
   <path class="fil1" d="M368730 334390c0,450 0,5520 -20,5840 -50,1330 -100,1410 -1740,1410l-1150 0c-200,0 -350,30 -350,150l0 620c0,160 80,210 200,210 130,0 3660,-80 3890,-80 220,0 3630,0 3860,0 180,0 230,-50 230,-200l0 -570c0,-130 -80,-210 -260,-210l-900 0c-1630,0 -1730,-170 -1750,-1480 0,-320 -30,-5630 -30,-5940l0 -1050c0,-3240 80,-7170 80,-7400 0,-200 -30,-350 -180,-350 -130,0 -230,80 -350,150l-5190 2990c-170,90 -200,190 -150,290l200 460c50,100 150,100 250,70l1760 -580c400,-120 770,-190 1000,-190 480,0 580,550 600,1400 30,1980 0,3160 0,3490l0 970z"/>
   <path class="fil1" d="M183110 231210c3030,0 4940,-2460 4940,-4410 0,-2280 -1530,-3560 -3540,-4510 2660,-1860 3460,-2960 3460,-5340 0,-1660 -1950,-3240 -4260,-3240 -3560,0 -5370,2630 -5370,4820 0,1920 1560,3230 3440,4280 -2130,1380 -3260,2660 -3260,4810 0,1610 1150,3590 4590,3590zm150 -850c-1450,0 -3160,-950 -3160,-3130 0,-1580 900,-3040 2510,-3940 1980,1050 3630,1980 3630,4010 0,2080 -1170,3060 -2980,3060zm50 -15620c1730,0 3090,1260 3010,3080 -100,1680 -1410,3170 -2630,3940 -2210,-1310 -3390,-2030 -3390,-3840 0,-1750 1230,-3180 3010,-3180z"/>
   <path class="fil1" d="M266300 230840c760,0 1230,30 1380,350 100,220 100,250 330,250 450,0 250,0 370,-280l1630 -3910c100,-150 0,-250 -200,-350 -250,-130 -320,-100 -440,130 -560,920 -1210,2100 -2920,2100l-5090 0c1110,-970 3090,-2430 4790,-4380 2260,-2540 3120,-4350 3120,-6470 0,-2840 -2290,-4570 -4400,-4570 -3380,0 -4610,2780 -5010,3760 -100,230 -80,300 0,350l350 150c130,80 200,50 300,-120 430,-750 1230,-2410 3360,-2440 1810,-20 3160,1310 3240,3540 70,2190 -1080,4110 -3090,6270 -2000,2160 -4210,4090 -5390,5190 -120,130 -150,200 -70,380 70,150 140,150 270,150 100,0 400,-20 780,-50 370,-20 830,-50 1260,-50l5430 0z"/>
   <path class="fil1" d="M220570 169130l5220 0c770,0 900,-100 1070,-500l900 -2510c50,-150 -70,-170 -350,-300 -140,-50 -220,-20 -290,130 -430,820 -660,1250 -1540,1250l-5360 0c-330,0 -370,100 -400,400l-910 7070c-20,150 0,220 130,280 170,100 300,70 450,50 650,-50 1900,-50 3260,550 1630,700 2210,2080 2210,3840 0,2200 -1960,3860 -3910,3860 -760,0 -1610,-250 -1990,-480 -370,-230 -800,-500 -1250,-500 -320,0 -550,300 -550,650 0,730 1410,1410 3260,1410 3410,0 6340,-2640 6320,-6220 0,-2260 -1410,-4010 -3860,-4670 -560,-150 -2230,-320 -2860,-270l450 -4040z"/>
   <path class="fil1" d="M214220 268470c0,450 0,5520 -20,5840 -50,1330 -100,1410 -1730,1410l-1150 0c-200,0 -350,30 -350,150l0 620c0,160 70,210 200,210 130,0 3660,-80 3890,-80 220,0 3630,0 3860,0 170,0 220,-50 220,-200l0 -570c0,-130 -80,-210 -250,-210l-910 0c-1620,0 -1720,-170 -1740,-1480 0,-320 -30,-5630 -30,-5940l0 -1050c0,-3240 80,-7170 80,-7400 0,-200 -30,-350 -180,-350 -130,0 -230,80 -360,150l-5190 2990c-170,100 -200,200 -150,290l200 460c50,100 150,100 260,70l1750 -570c400,-130 780,-200 1010,-200 470,0 570,550 590,1400 30,1980 0,3160 0,3490l0 970zm12540 0c0,450 0,5520 -20,5840 -50,1330 -100,1410 -1730,1410l-1160 0c-190,0 -340,30 -340,150l0 620c0,160 70,210 200,210 120,0 3660,-80 3880,-80 220,0 3640,0 3860,0 180,0 230,-50 230,-200l0 -570c0,-130 -80,-210 -260,-210l-900 0c-1630,0 -1730,-170 -1750,-1480 0,-320 -30,-5630 -30,-5940l0 -1050c0,-3240 80,-7170 80,-7400 0,-200 -30,-350 -180,-350 -120,0 -220,80 -350,150l-5190 2990c-170,100 -200,200 -150,290l200 460c50,100 150,100 260,70l1750 -570c400,-130 780,-200 1000,-200 480,0 580,550 600,1400 30,1980 0,3160 0,3490l0 970z"/>
   <path class="fil1" d="M183710 85230c0,1330 -80,6750 -130,7130 -100,640 -620,720 -1120,720l-1410 0c-120,0 -200,50 -200,150l0 680c0,100 80,150 200,150 280,0 1350,-80 3740,-80 2180,0 3190,0 3480,0 150,0 230,-50 230,-150l0 -650c0,-130 -80,-180 -200,-180l-1030 0c-800,0 -1180,-120 -1180,-900 0,-270 -80,-6060 -80,-6320l0 -1920c0,-310 80,-5850 80,-6100 0,-500 380,-700 880,-700l1180 0c120,0 200,-50 200,-180l0 -620c0,-100 -50,-180 -170,-180 -360,0 -1160,80 -3390,80 -2330,0 -3610,0 -3910,0 -100,0 -170,50 -170,150l0 670c0,100 70,150 190,150l1450 0c960,0 1210,260 1260,850 20,380 100,4890 100,5500l0 1750zm18080 -50c0,650 -50,5520 -80,6700 0,600 -70,1200 -700,1200l-1480 0c-100,0 -170,50 -170,150l0 650c0,130 50,180 170,180 580,0 1330,-80 3490,-80 1810,0 2680,0 3160,0 150,0 200,-50 200,-170l0 -630c0,-130 -50,-180 -200,-180l-1230 0c-530,0 -780,-250 -810,-850 -20,-1750 -40,-5610 -40,-6290l0 -530c0,-170 70,-240 350,-240l9180 0c420,0 540,20 540,290l0 350c0,900 -50,4940 -70,6120 0,680 -80,1150 -670,1150l-1590 0c-150,0 -200,50 -200,180l0 630c0,100 50,170 150,170 760,0 1560,-70 3740,-70 1830,0 2680,0 3160,0 150,0 200,-50 200,-200l0 -600c0,-130 -50,-180 -220,-180l-1110 0c-750,0 -1000,-350 -1000,-1260 -30,-1420 -80,-6190 -80,-6990l0 -850c0,-930 50,-5160 50,-5520 0,-900 80,-1330 810,-1330l1130 0c150,0 200,-20 200,-180l0 -590c0,-150 -30,-200 -200,-200 -480,0 -1510,70 -3220,70 -1700,0 -2780,0 -3310,0 -120,0 -150,50 -150,150l0 650c0,130 50,180 180,180l1300 0c730,0 830,480 830,1280 0,300 70,3780 70,5210l0 260c0,320 -120,370 -490,370l-9280 0c-230,0 -300,-80 -300,-200l0 -430c0,-1400 40,-4710 40,-5060 0,-1000 130,-1430 990,-1430l1280 0c140,0 190,-50 190,-200l0 -650c0,-100 -70,-130 -240,-130 -480,0 -1380,80 -3340,80 -2210,0 -3010,0 -3510,0 -130,0 -210,50 -210,170l0 600c0,150 30,200 160,200l1170 0c940,0 1110,360 1110,1640 0,390 50,3780 50,5330l0 1080zm24100 9100c3080,0 5530,-2780 5530,-5510 0,-1630 -570,-2940 -1700,-4090 -750,-750 -2130,-1450 -3510,-1450 -830,0 -2060,200 -3360,1200 -1480,1150 -2160,2760 -2160,4040 0,1780 230,2710 1390,4090 1050,1250 2600,1720 3810,1720zm300 -750c-1180,0 -1910,-480 -2480,-1300 -810,-1150 -960,-2110 -960,-3510 0,-1910 350,-2940 1330,-3940 600,-650 1250,-800 1930,-800 1280,0 3310,1750 3310,4540 0,2680 -1230,5010 -3130,5010zm16570 -6490c0,-2460 130,-3110 150,-3330 30,-130 -70,-260 -220,-260 -80,0 -180,30 -310,30 -120,20 -240,50 -420,50l-2330 0c-250,0 -300,20 -300,230l0 420c0,120 120,170 550,170 630,50 1030,180 1080,880l0 5970c0,230 -150,550 -250,680 -480,600 -1480,1250 -2160,1250 -680,0 -1380,-50 -2010,-950 -800,-1150 -550,-2760 -550,-3760l0 -1790c0,-1470 80,-2650 100,-2870 30,-180 -100,-310 -270,-310 -80,0 -180,30 -280,30 -100,20 -200,50 -350,50l-2230 0c-230,0 -280,50 -280,200l0 450c0,120 130,150 560,170 570,80 920,260 950,960l0 2910c0,2760 -50,3580 970,4910 830,1080 1660,1150 2360,1150 1250,0 2710,-770 3410,-1750l50 0 200 1450c20,250 120,300 230,300 200,0 350,-50 500,-100l2630 -870c100,-30 150,-80 130,-230l-80 -330c-20,-100 -90,-140 -300,-100 -300,80 -680,80 -830,80 -290,0 -570,-100 -650,-880 -50,-520 -50,-1750 -50,-2950l0 -1860zm6400 7240c2120,0 3780,-1280 3810,-3300 -30,-1940 -1180,-2690 -3010,-3220 -1230,-340 -2410,-620 -2410,-2080 0,-1070 980,-1650 1930,-1650 980,0 1450,500 1750,980l860 1150c70,130 120,150 220,130l300 -100c130,-50 180,-130 180,-230l-380 -1760c-20,-150 -70,-270 -440,-440 -460,-230 -1110,-530 -2310,-530 -1880,0 -3520,1330 -3520,3060 0,1980 1480,2750 2970,3180 1870,530 2430,1180 2430,2310 0,1170 -1100,1700 -1980,1700 -1330,0 -1680,-630 -2190,-1550l-620 -1230c-50,-130 -130,-180 -230,-150l-330 70c-100,30 -170,80 -150,200l430 2390c30,120 30,270 150,350 310,230 1310,720 2540,720zm13840 -6960c400,0 700,-50 700,-410 0,-970 -800,-3680 -3690,-3680 -1250,0 -2510,220 -3580,1330 -1330,1330 -1580,3010 -1580,3980 0,1750 220,2690 1100,3970 930,1350 2510,1770 3940,1770 2230,0 3530,-1720 3990,-2730 120,-270 70,-350 0,-370l-330 -180c-80,-20 -180,30 -230,130 -420,820 -1500,1700 -3030,1700 -2010,0 -3560,-1850 -3560,-4310 0,-580 30,-980 80,-1200l6190 0zm-6090 -760c470,-1850 1520,-2580 2620,-2580 1640,0 1940,1650 1940,2230 0,230 -200,350 -680,350l-3880 0z"/>
   <path class="fil1" d="M194020 120710c0,1530 -80,7780 -80,8250 0,330 -150,680 -1070,680l-1210 0c-150,0 -170,50 -170,180l0 620c0,130 20,180 200,180 320,0 1230,-80 3200,-80 2690,0 9910,30 10560,30 150,-680 1150,-4820 1230,-5000 20,-150 20,-170 -50,-220l-400 -150c-100,-50 -150,0 -200,100 -360,980 -1860,3990 -3330,4210 -790,100 -5750,50 -6300,0 -80,-1020 -80,-6440 -80,-6870l0 -2160c0,-1750 80,-5530 80,-5860 0,-720 100,-980 880,-980l1500 0c200,0 250,-70 250,-200l0 -580c0,-120 -20,-190 -220,-190 -230,0 -1280,70 -3710,70 -2080,0 -2990,0 -3260,0 -150,0 -180,50 -180,170l0 560c0,120 30,250 180,250l1180 0c750,0 870,250 920,900 30,450 80,3110 80,4710l0 1380zm21760 5370l0 -3840c0,-680 -30,-1250 -550,-1780 -360,-320 -830,-670 -2010,-670 -1130,0 -2010,250 -3060,870 -1030,610 -1730,1560 -1730,2360 0,580 200,800 600,800 1030,0 1330,-550 1330,-1430 0,-450 -220,-830 130,-1150 350,-330 1130,-530 1630,-530 730,0 1230,230 1500,560 280,320 300,970 350,1400l0 1600c-400,350 -1710,960 -2830,1460 -1980,870 -2510,1880 -2510,3030 0,1580 910,2080 1510,2080 550,0 1000,0 1480,-150 1120,-380 1950,-900 2480,-1530l50 0c230,1030 880,1680 1780,1680 1270,0 1750,-850 1960,-1230 150,-250 100,-370 20,-450l-250 -200c-100,-70 -150,-20 -250,100 -130,180 -480,380 -880,380 -450,0 -750,-460 -750,-1880l0 -1480zm-1830 2030c0,680 -1330,1560 -2050,1560 -760,0 -1310,-460 -1310,-1390 0,-2070 2460,-2580 3360,-3250l0 3080zm9570 9250c2140,0 3640,-700 4290,-1180 1260,-930 1680,-1900 1680,-3080 -20,-600 -150,-1610 -1230,-2410 -1000,-770 -2260,-1000 -4310,-900 -1680,100 -2940,180 -2940,-850 0,-710 840,-1210 1330,-1410 380,100 740,130 1280,130 830,0 2260,-530 2910,-1250 650,-780 930,-1740 930,-2710 0,-860 -180,-1410 -380,-1910 330,-150 630,-150 810,-150 200,0 370,120 520,220 200,180 450,380 880,380 580,0 980,-450 980,-920 50,-510 -350,-1060 -1180,-1060 -830,0 -1680,500 -2350,980 -260,-300 -1260,-1450 -3170,-1450 -2830,0 -4280,2000 -4280,3630 0,2230 1350,3380 2330,3810l0 50c-880,330 -2260,1180 -2260,2390 0,740 630,1530 1680,1750l0 100c-1210,530 -2630,1600 -2630,3010 0,820 370,1480 1280,2030 1200,680 2630,800 3830,800zm-150 -10400c-600,0 -1050,-210 -1500,-630 -530,-550 -810,-1330 -810,-2190 0,-950 100,-2100 910,-2950 600,-610 1200,-710 1780,-710 380,0 870,230 1200,560 460,500 680,1150 680,2250 0,1590 -550,3670 -2260,3670zm1030 9600c-1780,0 -2680,-130 -3510,-700 -500,-350 -980,-1100 -980,-1740 0,-1350 1230,-2200 2010,-2400l2410 -180c2510,-170 3630,960 3630,2430 130,1940 -2630,2590 -3560,2590zm17050 -13840c0,-630 -630,-1880 -1380,-2380 -600,-400 -1380,-550 -2130,-550 -1250,0 -2700,920 -3440,1820l-50 0 -170 -1520c-20,-200 -70,-300 -200,-300 -100,0 -250,70 -450,170l-2160 1210c-120,50 -220,120 -220,250l0 120c0,70 20,150 200,220l200 100c620,310 1030,740 1030,1490l0 5860c0,430 -180,510 -510,510l-720 0c-200,0 -250,70 -250,220l0 450c0,150 50,230 170,230 150,0 950,-80 2230,-80 1330,0 2010,0 2180,0 130,0 180,-80 180,-230l0 -420c0,-170 -50,-250 -250,-250l-630 0c-530,0 -600,-150 -600,-830l0 -5190c0,-480 70,-1150 580,-1710 750,-790 1630,-970 2030,-970 630,0 1220,0 1830,450 720,520 720,1250 720,2260l0 3310c0,650 -20,1450 -50,2100 -20,450 -220,580 -490,580l-730 0c-250,0 -330,50 -330,230l0 390c0,200 50,280 200,280 180,0 980,-80 2260,-80 1420,0 2210,0 2380,0 150,0 200,-100 200,-270l0 -400c0,-150 -50,-230 -270,-230l-810 0c-320,0 -550,-120 -550,-530l0 -6310zm10530 3360l0 -3840c0,-680 -20,-1250 -550,-1780 -350,-320 -830,-670 -2000,-670 -1130,0 -2010,250 -3060,870 -1030,610 -1730,1560 -1730,2360 0,580 200,800 600,800 1030,0 1330,-550 1330,-1430 0,-450 -220,-830 120,-1150 350,-330 1130,-530 1630,-530 730,0 1230,230 1510,560 280,320 300,970 350,1400l0 1600c-400,350 -1710,960 -2830,1460 -1980,870 -2510,1880 -2510,3030 0,1580 900,2080 1510,2080 540,0 1000,0 1470,-150 1130,-380 1960,-900 2490,-1530l40 0c230,1030 890,1680 1790,1680 1270,0 1750,-850 1950,-1230 150,-250 100,-370 20,-450l-240 -200c-100,-70 -150,-20 -250,100 -130,180 -480,380 -880,380 -450,0 -760,-460 -760,-1880l0 -1480zm-1820 2030c0,680 -1330,1560 -2060,1560 -750,0 -1310,-460 -1310,-1390 0,-2070 2460,-2580 3370,-3250l0 3080z"/>
   <path class="fil1" d="M67850 30220c0,1330 -80,6750 -130,7120 -100,650 -630,730 -1130,730l-1400 0c-130,0 -200,50 -200,150l0 670c0,110 70,160 200,160 270,0 1350,-80 3740,-80 2180,0 3180,0 3480,0 150,0 230,-50 230,-150l0 -650c0,-130 -80,-180 -210,-180l-1020 0c-810,0 -1180,-120 -1180,-900 0,-270 -80,-6060 -80,-6320l0 -1930c0,-300 80,-5840 80,-6090 0,-500 370,-700 880,-700l1170 0c130,0 210,-50 210,-180l0 -620c0,-100 -60,-180 -180,-180 -360,0 -1150,80 -3380,80 -2340,0 -3610,0 -3920,0 -100,0 -170,50 -170,150l0 670c0,100 70,150 200,150l1450 0c950,0 1210,260 1260,850 20,380 100,4890 100,5500l0 1750zm9300 0c0,1330 -80,6750 -130,7120 -100,650 -620,730 -1120,730l-1410 0c-130,0 -200,50 -200,150l0 670c0,110 70,160 200,160 280,0 1350,-80 3740,-80 2180,0 3180,0 3480,0 150,0 230,-50 230,-150l0 -650c0,-130 -80,-180 -210,-180l-1020 0c-800,0 -1180,-120 -1180,-900 0,-270 -80,-6060 -80,-6320l0 -1930c0,-300 80,-5840 80,-6090 0,-500 380,-700 880,-700l1170 0c130,0 210,-50 210,-180l0 -620c0,-100 -60,-180 -180,-180 -350,0 -1150,80 -3380,80 -2330,0 -3610,0 -3920,0 -100,0 -170,50 -170,150l0 670c0,100 70,150 200,150l1450 0c950,0 1210,260 1260,850 20,380 100,4890 100,5500l0 1750zm18080 -50c0,650 -50,5520 -80,6700 0,600 -70,1200 -700,1200l-1480 0c-100,0 -170,50 -170,150l0 650c0,130 50,180 170,180 580,0 1330,-80 3490,-80 1810,0 2680,0 3160,0 150,0 190,-50 190,-180l0 -620c0,-130 -40,-180 -190,-180l-1230 0c-530,0 -780,-250 -810,-850 -20,-1750 -50,-5620 -50,-6290l0 -530c0,-180 80,-250 360,-250l9170 0c430,0 550,20 550,300l0 350c0,900 -50,4940 -70,6120 0,670 -80,1150 -670,1150l-1590 0c-150,0 -200,50 -200,180l0 620c0,100 50,180 150,180 750,0 1560,-80 3740,-80 1830,0 2680,0 3160,0 150,0 200,-50 200,-200l0 -590c0,-130 -50,-180 -230,-180l-1100 0c-750,0 -1000,-360 -1000,-1260 -30,-1430 -80,-6190 -80,-6990l0 -850c0,-930 50,-5160 50,-5520 0,-900 80,-1330 800,-1330l1130 0c150,0 200,-20 200,-180l0 -590c0,-150 -20,-200 -200,-200 -470,0 -1500,70 -3210,70 -1700,0 -2780,0 -3310,0 -120,0 -150,50 -150,150l0 650c0,130 50,180 180,180l1300 0c730,0 830,480 830,1280 0,300 70,3780 70,5210l0 250c0,330 -120,380 -500,380l-9270 0c-230,0 -310,-80 -310,-210l0 -420c0,-1400 50,-4710 50,-5060 0,-1000 130,-1430 980,-1430l1280 0c150,0 200,-50 200,-200l0 -650c0,-100 -80,-130 -250,-130 -470,0 -1380,80 -3330,80 -2210,0 -3010,0 -3510,0 -130,0 -210,50 -210,170l0 600c0,150 30,200 160,200l1170 0c930,0 1110,360 1110,1630 0,400 50,3790 50,5340l0 1080zm24100 9100c3080,0 5530,-2780 5530,-5510 0,-1630 -570,-2940 -1700,-4090 -750,-760 -2130,-1450 -3510,-1450 -830,0 -2060,200 -3360,1200 -1480,1150 -2160,2760 -2160,4040 0,1770 230,2700 1390,4080 1050,1250 2600,1730 3810,1730zm290 -750c-1180,0 -1900,-480 -2480,-1300 -800,-1160 -950,-2110 -950,-3510 0,-1910 350,-2940 1330,-3940 600,-650 1250,-810 1930,-810 1280,0 3310,1760 3310,4550 0,2680 -1230,5010 -3140,5010zm16580 -6490c0,-2460 130,-3120 150,-3340 30,-120 -70,-250 -220,-250 -80,0 -180,30 -310,30 -120,20 -250,50 -420,50l-2340 0c-240,0 -290,20 -290,220l0 430c0,120 120,170 540,170 640,50 1030,180 1080,880l0 5970c0,220 -150,550 -250,680 -470,600 -1470,1250 -2160,1250 -670,0 -1370,-50 -2000,-950 -800,-1150 -550,-2760 -550,-3760l0 -1790c0,-1480 70,-2660 100,-2880 20,-170 -100,-300 -280,-300 -70,0 -170,30 -270,30 -100,20 -200,50 -350,50l-2230 0c-230,0 -280,50 -280,200l0 450c0,120 130,150 560,170 570,80 920,260 950,950l0 2920c0,2760 -50,3580 970,4910 830,1080 1660,1150 2360,1150 1250,0 2710,-770 3410,-1760l50 0 200 1460c20,250 120,300 230,300 200,0 350,-50 500,-100l2630 -870c100,-30 150,-80 120,-230l-70 -330c-30,-100 -100,-150 -300,-100 -300,80 -680,80 -830,80 -300,0 -570,-110 -650,-880 -50,-530 -50,-1760 -50,-2960l0 -1850zm6400 7240c2120,0 3780,-1280 3810,-3300 -30,-1940 -1180,-2690 -3010,-3220 -1230,-350 -2410,-620 -2410,-2080 0,-1070 970,-1660 1930,-1660 980,0 1450,510 1750,990l850 1150c80,120 130,150 230,120l300 -100c130,-40 180,-120 180,-220l-380 -1760c-20,-150 -70,-280 -450,-450 -450,-220 -1100,-520 -2310,-520 -1870,0 -3510,1330 -3510,3050 0,1990 1480,2760 2970,3190 1870,520 2430,1180 2430,2310 0,1170 -1100,1700 -1990,1700 -1320,0 -1670,-630 -2180,-1550l-620 -1230c-50,-130 -130,-180 -230,-150l-330 70c-100,30 -170,80 -150,200l430 2390c30,120 30,270 150,350 300,220 1310,720 2540,720zm13830 -6960c410,0 710,-50 710,-410 0,-970 -800,-3680 -3690,-3680 -1250,0 -2510,220 -3580,1330 -1330,1330 -1580,3000 -1580,3980 0,1750 220,2680 1100,3960 920,1350 2510,1780 3940,1780 2230,0 3530,-1730 3990,-2730 120,-280 70,-350 0,-380l-330 -170c-80,-20 -180,30 -230,130 -420,820 -1510,1700 -3030,1700 -2010,0 -3560,-1850 -3560,-4310 0,-580 20,-980 70,-1200l6190 0zm-6090 -760c480,-1850 1530,-2590 2630,-2590 1640,0 1940,1660 1940,2240 0,220 -200,350 -680,350l-3890 0z"/>
   <path class="fil1" d="M284610 38220c0,-70 -30,-150 -200,-150l-980 0c-600,0 -750,-430 -480,-1130 180,-450 3140,-4710 4120,-6090 520,720 3990,6370 4130,6740 150,330 -90,480 -600,480l-980 0c-120,0 -150,80 -150,180l0 620c0,100 30,180 200,180 180,0 1530,-80 3540,-80 2100,0 2980,0 3180,0 180,0 200,-100 200,-200l0 -600c0,-100 -20,-180 -200,-180l-820 0c-480,0 -1080,-150 -1660,-670 -250,-230 -5090,-7750 -5410,-8230 950,-1300 4940,-6390 5410,-6710 220,-160 500,-330 1060,-330l1050 0c130,0 150,-50 150,-230l0 -570c0,-80 -20,-180 -200,-180 -250,0 -1150,80 -2530,80 -1430,0 -2460,0 -2740,0 -150,0 -180,50 -180,170l0 580c0,120 30,220 160,220l520 0c650,0 780,530 500,1030 -250,480 -3080,4360 -3780,5240 -600,-830 -2910,-4710 -3130,-5090 -330,-530 -410,-1180 720,-1180l880 0c200,0 220,-70 220,-220l0 -580c0,-70 -20,-170 -200,-170 -220,0 -1270,70 -3780,70 -2160,0 -3310,0 -3560,0 -100,0 -130,80 -130,200l0 580c0,100 30,200 130,200l1100 0c470,0 900,150 1130,370 570,580 4360,6250 5240,7550 -1230,1480 -4160,5940 -5690,7300 -510,420 -1030,730 -1430,730l-980 0c-130,0 -150,70 -150,170l0 570c0,130 20,230 150,230 230,0 1230,-70 2710,-70 2030,0 3000,0 3260,0 170,0 200,-80 200,-230l0 -600zm15250 -8000c0,1330 -80,6750 -130,7120 -100,650 -630,730 -1130,730l-1400 0c-130,0 -200,50 -200,150l0 670c0,110 70,160 200,160 270,0 1350,-80 3740,-80 2180,0 3180,0 3480,0 150,0 230,-50 230,-150l0 -650c0,-130 -80,-180 -210,-180l-1020 0c-810,0 -1180,-120 -1180,-900 0,-270 -80,-6060 -80,-6320l0 -1930c0,-300 80,-5840 80,-6090 0,-500 370,-700 880,-700l1170 0c130,0 210,-50 210,-180l0 -620c0,-100 -60,-180 -180,-180 -360,0 -1150,80 -3380,80 -2340,0 -3620,0 -3920,0 -100,0 -170,50 -170,150l0 670c0,100 70,150 200,150l1450 0c950,0 1210,260 1260,850 20,380 100,4890 100,5500l0 1750zm9300 0c0,1330 -80,6750 -130,7120 -100,650 -620,730 -1120,730l-1410 0c-130,0 -200,50 -200,150l0 670c0,110 70,160 200,160 280,0 1350,-80 3740,-80 2180,0 3180,0 3480,0 150,0 230,-50 230,-150l0 -650c0,-130 -80,-180 -210,-180l-1020 0c-800,0 -1180,-120 -1180,-900 0,-270 -80,-6060 -80,-6320l0 -1930c0,-300 80,-5840 80,-6090 0,-500 380,-700 880,-700l1170 0c130,0 210,-50 210,-180l0 -620c0,-100 -60,-180 -180,-180 -350,0 -1150,80 -3380,80 -2330,0 -3610,0 -3920,0 -100,0 -170,50 -170,150l0 670c0,100 70,150 200,150l1450 0c950,0 1210,260 1260,850 20,380 100,4890 100,5500l0 1750zm18080 -50c0,650 -50,5520 -80,6700 0,600 -70,1200 -700,1200l-1480 0c-100,0 -170,50 -170,150l0 650c0,130 50,180 170,180 580,0 1330,-80 3490,-80 1800,0 2680,0 3160,0 140,0 190,-50 190,-180l0 -620c0,-130 -50,-180 -190,-180l-1230 0c-530,0 -780,-250 -810,-850 -20,-1750 -50,-5620 -50,-6290l0 -530c0,-180 80,-250 360,-250l9170 0c430,0 550,20 550,300l0 350c0,900 -50,4940 -70,6120 0,670 -80,1150 -670,1150l-1590 0c-150,0 -200,50 -200,180l0 620c0,100 50,180 150,180 750,0 1560,-80 3740,-80 1830,0 2680,0 3150,0 160,0 210,-50 210,-200l0 -590c0,-130 -50,-180 -230,-180l-1100 0c-750,0 -1000,-360 -1000,-1260 -30,-1430 -80,-6190 -80,-6990l0 -850c0,-930 50,-5160 50,-5520 0,-900 80,-1330 800,-1330l1130 0c150,0 200,-20 200,-180l0 -590c0,-150 -20,-200 -200,-200 -470,0 -1500,70 -3210,70 -1700,0 -2780,0 -3310,0 -120,0 -150,50 -150,150l0 650c0,130 50,180 180,180l1300 0c730,0 830,480 830,1280 0,300 70,3780 70,5210l0 250c0,330 -120,380 -500,380l-9270 0c-230,0 -310,-80 -310,-210l0 -420c0,-1400 50,-4710 50,-5060 0,-1000 130,-1430 980,-1430l1280 0c150,0 200,-50 200,-200l0 -650c0,-100 -80,-130 -250,-130 -470,0 -1380,80 -3330,80 -2210,0 -3010,0 -3510,0 -130,0 -210,50 -210,170l0 600c0,150 30,200 160,200l1170 0c930,0 1110,360 1110,1630 0,400 50,3790 50,5340l0 1080zm24090 9100c3090,0 5540,-2780 5540,-5510 0,-1630 -570,-2940 -1700,-4090 -750,-760 -2130,-1450 -3510,-1450 -830,0 -2060,200 -3360,1200 -1480,1150 -2160,2760 -2160,4040 0,1770 230,2700 1390,4080 1050,1250 2600,1730 3800,1730zm300 -750c-1180,0 -1900,-480 -2480,-1300 -800,-1160 -950,-2110 -950,-3510 0,-1910 350,-2940 1330,-3940 600,-650 1250,-810 1930,-810 1280,0 3310,1760 3310,4550 0,2680 -1230,5010 -3140,5010zm16580 -6490c0,-2460 130,-3120 150,-3340 30,-120 -70,-250 -220,-250 -80,0 -180,30 -310,30 -120,20 -250,50 -420,50l-2340 0c-240,0 -290,20 -290,220l0 430c0,120 120,170 540,170 640,50 1030,180 1080,880l0 5970c0,220 -150,550 -250,680 -470,600 -1470,1250 -2160,1250 -670,0 -1380,-50 -2000,-950 -800,-1150 -550,-2760 -550,-3760l0 -1790c0,-1480 70,-2660 100,-2880 20,-170 -100,-300 -280,-300 -70,0 -170,30 -270,30 -100,20 -200,50 -350,50l-2230 0c-230,0 -280,50 -280,200l0 450c0,120 130,150 550,170 580,80 930,260 960,950l0 2920c0,2760 -50,3580 970,4910 830,1080 1660,1150 2360,1150 1250,0 2710,-770 3410,-1760l50 0 200 1460c20,250 120,300 230,300 200,0 350,-50 500,-100l2630 -870c100,-30 150,-80 120,-230l-70 -330c-30,-100 -100,-150 -300,-100 -300,80 -680,80 -830,80 -300,0 -570,-110 -650,-880 -50,-530 -50,-1760 -50,-2960l0 -1850zm6400 7240c2120,0 3780,-1280 3810,-3300 -30,-1940 -1180,-2690 -3010,-3220 -1230,-350 -2410,-620 -2410,-2080 0,-1070 970,-1660 1930,-1660 980,0 1450,510 1750,990l850 1150c80,120 130,150 230,120l300 -100c130,-40 180,-120 180,-220l-380 -1760c-20,-150 -70,-280 -450,-450 -450,-220 -1100,-520 -2310,-520 -1870,0 -3510,1330 -3510,3050 0,1990 1480,2760 2970,3190 1870,520 2430,1180 2430,2310 0,1170 -1110,1700 -1990,1700 -1330,0 -1670,-630 -2180,-1550l-620 -1230c-50,-130 -130,-180 -230,-150l-330 70c-100,30 -170,80 -150,200l430 2390c30,120 30,270 150,350 300,220 1310,720 2540,720zm13830 -6960c410,0 710,-50 710,-410 0,-970 -810,-3680 -3690,-3680 -1250,0 -2510,220 -3580,1330 -1330,1330 -1580,3000 -1580,3980 0,1750 220,2680 1100,3960 920,1350 2510,1780 3940,1780 2230,0 3530,-1730 3990,-2730 120,-280 70,-350 0,-380l-330 -170c-80,-20 -180,30 -230,130 -430,820 -1510,1700 -3030,1700 -2010,0 -3560,-1850 -3560,-4310 0,-580 20,-980 70,-1200l6190 0zm-6090 -760c480,-1850 1530,-2590 2630,-2590 1640,0 1940,1660 1940,2240 0,220 -200,350 -680,350l-3890 0z"/>
   <path class="fil1" d="M60830 407280c0,100 20,170 120,170l650 0c530,0 780,260 1030,840 330,750 1500,4380 2100,6170l250 850c330,900 2360,6620 3170,8920 120,330 220,580 420,580 130,0 250,-130 350,-320 130,-260 3360,-8230 3660,-9060 430,-1050 2440,-6190 3090,-6990 470,-580 950,-990 1780,-990l680 0c140,0 170,-70 170,-170l0 -630c0,-120 -30,-170 -170,-170 -230,0 -860,70 -2690,70 -1580,0 -2730,0 -2960,0 -120,0 -150,50 -150,180l0 580c0,140 30,220 130,220l650 0c630,0 800,280 800,580 0,350 -150,800 -350,1430 -370,1100 -1330,3980 -1580,4660 -200,580 -2160,5740 -2680,6920l-50 0c-580,-1530 -2030,-5840 -2330,-6790 -450,-1410 -1380,-4390 -1530,-5290 -80,-360 -100,-650 -100,-850 0,-430 350,-660 1050,-660l1200 0c180,0 200,-100 200,-220l0 -580c0,-100 -20,-180 -250,-180 -220,0 -1350,80 -3460,80 -1950,0 -2780,0 -3030,0 -150,0 -170,50 -170,180l0 470zm20510 8280c0,1330 -80,6740 -130,7120 -100,650 -630,720 -1120,720l-1410 0c-130,0 -200,50 -200,150l0 680c0,110 70,160 200,160 280,0 1350,-80 3740,-80 2180,0 3180,0 3480,0 150,0 230,-50 230,-150l0 -660c0,-120 -80,-170 -210,-170l-1020 0c-800,0 -1180,-120 -1180,-910 0,-270 -80,-6060 -80,-6310l0 -1930c0,-310 80,-5840 80,-6090 0,-510 380,-710 880,-710l1170 0c130,0 210,-50 210,-170l0 -630c0,-100 -60,-180 -180,-180 -350,0 -1150,80 -3380,80 -2330,0 -3610,0 -3920,0 -100,0 -170,50 -170,150l0 680c0,100 70,140 200,140l1450 0c950,0 1210,260 1260,860 20,370 100,4890 100,5490l0 1760zm18080 -50c0,640 -50,5510 -80,6690 0,600 -70,1200 -700,1200l-1480 0c-100,0 -170,50 -170,150l0 660c0,130 50,180 170,180 570,0 1330,-80 3490,-80 1800,0 2680,0 3150,0 150,0 200,-50 200,-180l0 -630c0,-120 -50,-170 -200,-170l-1230 0c-520,0 -770,-250 -800,-860 -20,-1750 -50,-5610 -50,-6290l0 -520c0,-180 80,-250 360,-250l9170 0c430,0 550,20 550,300l0 340c0,910 -50,4950 -70,6120 0,680 -80,1160 -680,1160l-1580 0c-150,0 -200,50 -200,170l0 630c0,100 50,180 150,180 750,0 1560,-80 3740,-80 1820,0 2680,0 3150,0 160,0 210,-50 210,-200l0 -600c0,-130 -50,-170 -230,-170l-1100 0c-750,0 -1000,-360 -1000,-1260 -30,-1430 -80,-6190 -80,-7000l0 -850c0,-920 50,-5160 50,-5520 0,-900 80,-1320 800,-1320l1130 0c150,0 200,-30 200,-180l0 -600c0,-150 -30,-200 -200,-200 -470,0 -1500,70 -3210,70 -1700,0 -2780,0 -3310,0 -120,0 -150,50 -150,150l0 660c0,120 50,170 180,170l1300 0c730,0 830,480 830,1280 0,300 70,3780 70,5210l0 260c0,330 -120,380 -500,380l-9270 0c-230,0 -310,-80 -310,-210l0 -430c0,-1400 50,-4710 50,-5060 0,-1000 130,-1430 980,-1430l1280 0c150,0 200,-50 200,-200l0 -650c0,-100 -80,-130 -250,-130 -470,0 -1380,80 -3330,80 -2210,0 -3020,0 -3510,0 -130,0 -210,50 -210,170l0 610c0,150 30,190 160,190l1170 0c930,0 1110,360 1110,1640 0,400 50,3780 50,5340l0 1080zm24090 9100c3090,0 5540,-2780 5540,-5520 0,-1630 -580,-2940 -1700,-4090 -750,-750 -2130,-1450 -3510,-1450 -830,0 -2060,200 -3360,1200 -1480,1160 -2160,2760 -2160,4040 0,1780 230,2710 1380,4090 1060,1250 2610,1730 3810,1730zm300 -760c-1180,0 -1900,-470 -2480,-1300 -800,-1150 -950,-2100 -950,-3510 0,-1900 350,-2930 1330,-3940 600,-640 1250,-800 1920,-800 1280,0 3320,1750 3320,4540 0,2680 -1230,5010 -3140,5010zm16580 -6490c0,-2460 130,-3110 150,-3330 30,-130 -70,-260 -220,-260 -80,0 -180,30 -310,30 -120,20 -250,50 -430,50l-2330 0c-250,0 -300,20 -300,230l0 430c0,120 130,170 550,170 630,50 1030,170 1080,880l0 5960c0,230 -150,560 -250,680 -470,600 -1480,1250 -2160,1250 -670,0 -1380,-50 -2000,-950 -800,-1150 -550,-2760 -550,-3760l0 -1780c0,-1480 70,-2660 100,-2880 20,-180 -100,-310 -280,-310 -70,0 -170,30 -270,30 -100,20 -200,50 -350,50l-2230 0c-230,0 -280,50 -280,200l0 460c0,120 130,150 550,170 580,70 930,250 960,950l0 2910c0,2760 -50,3580 970,4910 830,1080 1660,1160 2360,1160 1250,0 2710,-780 3410,-1760l50 0 200 1460c20,250 120,300 230,300 200,0 350,-50 490,-100l2640 -880c100,-30 150,-80 120,-230l-70 -320c-30,-100 -100,-150 -300,-100 -300,80 -680,80 -830,80 -300,0 -570,-110 -650,-890 -50,-520 -50,-1750 -50,-2950l0 -1860zm6390 7250c2130,0 3790,-1280 3810,-3310 -20,-1930 -1180,-2690 -3000,-3210 -1230,-350 -2410,-630 -2410,-2080 0,-1080 970,-1660 1920,-1660 990,0 1460,500 1760,980l850 1150c80,130 130,150 230,130l300 -100c130,-50 180,-130 180,-230l-380 -1750c-20,-150 -70,-280 -450,-450 -450,-230 -1100,-530 -2310,-530 -1870,0 -3510,1330 -3510,3060 0,1980 1480,2760 2970,3180 1870,530 2430,1180 2430,2310 0,1180 -1110,1700 -1990,1700 -1330,0 -1670,-620 -2180,-1550l-620 -1230c-50,-120 -130,-170 -230,-150l-330 70c-100,30 -170,80 -150,200l430 2390c30,120 30,270 150,350 300,230 1310,730 2530,730zm13840 -6970c410,0 710,-50 710,-410 0,-970 -810,-3680 -3690,-3680 -1250,0 -2510,220 -3580,1330 -1330,1330 -1580,3010 -1580,3980 0,1760 220,2690 1100,3970 920,1350 2510,1780 3940,1780 2230,0 3530,-1730 3980,-2730 130,-280 80,-360 0,-380l-320 -180c-80,-20 -180,30 -230,130 -430,820 -1510,1710 -3040,1710 -2000,0 -3560,-1860 -3560,-4320 0,-570 30,-980 80,-1200l6190 0zm-6090 -750c480,-1860 1530,-2590 2630,-2590 1640,0 1930,1660 1930,2230 0,230 -190,360 -670,360l-3890 0z"/>
   <path class="fil1" d="M279440 407280c0,100 30,170 130,170l650 0c530,0 780,260 1030,840 330,750 1500,4380 2100,6170l250 850c330,900 2360,6620 3170,8920 120,330 220,580 420,580 130,0 250,-130 350,-320 130,-260 3360,-8230 3660,-9060 430,-1050 2440,-6190 3090,-6990 470,-580 950,-990 1780,-990l670 0c150,0 180,-70 180,-170l0 -630c0,-120 -30,-170 -180,-170 -220,0 -850,70 -2680,70 -1580,0 -2730,0 -2960,0 -120,0 -150,50 -150,180l0 580c0,140 30,220 130,220l650 0c630,0 800,280 800,580 0,350 -150,800 -350,1430 -380,1100 -1330,3980 -1580,4660 -200,580 -2160,5740 -2680,6920l-50 0c-580,-1530 -2040,-5840 -2330,-6790 -450,-1410 -1380,-4390 -1530,-5290 -80,-360 -100,-650 -100,-850 0,-430 350,-660 1050,-660l1200 0c180,0 200,-100 200,-220l0 -580c0,-100 -20,-180 -250,-180 -230,0 -1350,80 -3460,80 -1950,0 -2780,0 -3030,0 -150,0 -180,50 -180,180l0 470zm20520 8280c0,1330 -80,6740 -130,7120 -100,650 -630,720 -1120,720l-1410 0c-130,0 -200,50 -200,150l0 680c0,110 70,160 200,160 280,0 1350,-80 3740,-80 2180,0 3180,0 3480,0 150,0 230,-50 230,-150l0 -660c0,-120 -80,-170 -210,-170l-1020 0c-810,0 -1180,-120 -1180,-910 0,-270 -80,-6060 -80,-6310l0 -1930c0,-310 80,-5840 80,-6090 0,-510 370,-710 880,-710l1170 0c130,0 210,-50 210,-170l0 -630c0,-100 -60,-180 -180,-180 -350,0 -1150,80 -3380,80 -2330,0 -3610,0 -3920,0 -100,0 -170,50 -170,150l0 680c0,100 70,140 200,140l1450 0c950,0 1210,260 1260,860 20,370 100,4890 100,5490l0 1760zm9300 0c0,1330 -80,6740 -130,7120 -100,650 -620,720 -1120,720l-1410 0c-120,0 -200,50 -200,150l0 680c0,110 80,160 200,160 280,0 1350,-80 3740,-80 2180,0 3190,0 3480,0 150,0 230,-50 230,-150l0 -660c0,-120 -80,-170 -200,-170l-1030 0c-800,0 -1180,-120 -1180,-910 0,-270 -80,-6060 -80,-6310l0 -1930c0,-310 80,-5840 80,-6090 0,-510 380,-710 880,-710l1180 0c120,0 200,-50 200,-170l0 -630c0,-100 -50,-180 -180,-180 -350,0 -1150,80 -3380,80 -2330,0 -3610,0 -3910,0 -100,0 -170,50 -170,150l0 680c0,100 70,140 190,140l1450 0c960,0 1210,260 1260,860 20,370 100,4890 100,5490l0 1760zm18080 -50c0,640 -50,5510 -80,6690 0,600 -70,1200 -700,1200l-1480 0c-100,0 -170,50 -170,150l0 660c0,130 50,180 170,180 580,0 1330,-80 3490,-80 1810,0 2680,0 3160,0 150,0 200,-50 200,-180l0 -630c0,-120 -50,-170 -200,-170l-1230 0c-530,0 -780,-250 -810,-860 -20,-1750 -40,-5610 -40,-6290l0 -520c0,-180 70,-250 350,-250l9180 0c420,0 540,20 540,300l0 340c0,910 -50,4950 -70,6120 0,680 -80,1160 -670,1160l-1590 0c-150,0 -200,50 -200,170l0 630c0,100 50,180 150,180 760,0 1560,-80 3740,-80 1830,0 2680,0 3160,0 150,0 200,-50 200,-200l0 -600c0,-130 -50,-170 -220,-170l-1110 0c-750,0 -1000,-360 -1000,-1260 -30,-1430 -80,-6190 -80,-7000l0 -850c0,-920 50,-5160 50,-5520 0,-900 80,-1320 810,-1320l1130 0c150,0 200,-30 200,-180l0 -600c0,-150 -30,-200 -200,-200 -480,0 -1510,70 -3220,70 -1700,0 -2780,0 -3310,0 -120,0 -150,50 -150,150l0 660c0,120 50,170 180,170l1300 0c730,0 830,480 830,1280 0,300 70,3780 70,5210l0 260c0,330 -120,380 -490,380l-9280 0c-230,0 -300,-80 -300,-210l0 -430c0,-1400 40,-4710 40,-5060 0,-1000 130,-1430 990,-1430l1270 0c150,0 200,-50 200,-200l0 -650c0,-100 -70,-130 -240,-130 -480,0 -1380,80 -3340,80 -2210,0 -3010,0 -3510,0 -130,0 -210,50 -210,170l0 610c0,150 30,190 160,190l1170 0c930,0 1110,360 1110,1640 0,400 50,3780 50,5340l0 1080zm24100 9100c3080,0 5530,-2780 5530,-5520 0,-1630 -570,-2940 -1700,-4090 -750,-750 -2130,-1450 -3510,-1450 -830,0 -2060,200 -3360,1200 -1480,1160 -2160,2760 -2160,4040 0,1780 230,2710 1390,4090 1050,1250 2600,1730 3810,1730zm300 -760c-1180,0 -1910,-470 -2480,-1300 -810,-1150 -960,-2100 -960,-3510 0,-1900 350,-2930 1330,-3940 600,-640 1250,-800 1930,-800 1280,0 3310,1750 3310,4540 0,2680 -1230,5010 -3130,5010zm16570 -6490c0,-2460 130,-3110 150,-3330 30,-130 -70,-260 -220,-260 -80,0 -180,30 -310,30 -120,20 -240,50 -420,50l-2330 0c-250,0 -300,20 -300,230l0 430c0,120 120,170 550,170 630,50 1030,170 1080,880l0 5960c0,230 -150,560 -250,680 -480,600 -1480,1250 -2160,1250 -680,0 -1380,-50 -2010,-950 -800,-1150 -550,-2760 -550,-3760l0 -1780c0,-1480 80,-2660 100,-2880 20,-180 -100,-310 -270,-310 -80,0 -180,30 -280,30 -100,20 -200,50 -350,50l-2230 0c-230,0 -280,50 -280,200l0 460c0,120 130,150 560,170 570,70 920,250 950,950l0 2910c0,2760 -50,3580 970,4910 830,1080 1660,1160 2360,1160 1250,0 2710,-780 3410,-1760l50 0 200 1460c20,250 120,300 230,300 200,0 350,-50 500,-100l2630 -880c100,-30 150,-80 130,-230l-80 -320c-20,-100 -90,-150 -300,-100 -300,80 -680,80 -830,80 -290,0 -570,-110 -650,-890 -50,-520 -50,-1750 -50,-2950l0 -1860zm6400 7250c2120,0 3780,-1280 3810,-3310 -30,-1930 -1180,-2690 -3010,-3210 -1230,-350 -2410,-630 -2410,-2080 0,-1080 980,-1660 1930,-1660 980,0 1450,500 1750,980l860 1150c70,130 120,150 220,130l300 -100c130,-50 180,-130 180,-230l-380 -1750c-20,-150 -70,-280 -440,-450 -460,-230 -1110,-530 -2310,-530 -1880,0 -3520,1330 -3520,3060 0,1980 1480,2760 2970,3180 1870,530 2430,1180 2430,2310 0,1180 -1100,1700 -1980,1700 -1330,0 -1680,-620 -2190,-1550l-620 -1230c-50,-120 -130,-170 -230,-150l-330 70c-100,30 -170,80 -150,200l430 2390c30,120 30,270 150,350 310,230 1310,730 2540,730zm13840 -6970c400,0 700,-50 700,-410 0,-970 -800,-3680 -3690,-3680 -1250,0 -2510,220 -3580,1330 -1330,1330 -1580,3010 -1580,3980 0,1760 220,2690 1100,3970 930,1350 2510,1780 3940,1780 2230,0 3530,-1730 3990,-2730 120,-280 70,-360 0,-380l-330 -180c-80,-20 -180,30 -230,130 -420,820 -1500,1710 -3030,1710 -2010,0 -3560,-1860 -3560,-4320 0,-570 30,-980 80,-1200l6190 0zm-6100 -750c480,-1860 1530,-2590 2630,-2590 1640,0 1940,1660 1940,2230 0,230 -200,360 -680,360l-3890 0z"/>
   <path class="fil1" d="M54910 223690c0,1330 -80,6750 -130,7120 -100,650 -630,730 -1120,730l-1410 0c-130,0 -200,50 -200,150l0 670c0,110 70,160 200,160 280,0 1350,-80 3740,-80 2180,0 3180,0 3480,0 150,0 230,-50 230,-150l0 -650c0,-130 -80,-180 -210,-180l-1020 0c-800,0 -1180,-120 -1180,-900 0,-270 -80,-6060 -80,-6320l0 -1930c0,-300 80,-5840 80,-6090 0,-500 380,-700 880,-700l1170 0c130,0 210,-50 210,-180l0 -620c0,-100 -60,-180 -180,-180 -350,0 -1150,80 -3380,80 -2330,0 -3610,0 -3920,0 -100,0 -170,50 -170,150l0 670c0,100 70,150 200,150l1450 0c950,0 1210,260 1260,850 20,380 100,4890 100,5500l0 1750zm6490 -8270c0,100 30,170 120,170l660 0c520,0 780,260 1030,830 330,760 1500,4390 2100,6170l250 850c330,910 2360,6620 3170,8920 120,330 220,590 420,590 130,0 250,-130 350,-330 130,-260 3360,-8220 3660,-9060 430,-1050 2440,-6190 3080,-6990 480,-570 960,-980 1790,-980l670 0c150,0 180,-70 180,-170l0 -630c0,-120 -30,-170 -180,-170 -220,0 -850,70 -2680,70 -1580,0 -2730,0 -2960,0 -120,0 -150,50 -150,170l0 580c0,150 30,230 130,230l650 0c630,0 800,280 800,570 0,350 -150,810 -350,1430 -380,1100 -1330,3990 -1580,4670 -200,570 -2160,5740 -2680,6920l-50 0c-580,-1530 -2040,-5840 -2330,-6800 -450,-1400 -1380,-4380 -1530,-5280 -80,-360 -100,-660 -100,-860 0,-420 350,-650 1050,-650l1200 0c180,0 200,-100 200,-230l0 -580c0,-90 -20,-170 -250,-170 -230,0 -1350,80 -3460,80 -1950,0 -2780,0 -3040,0 -140,0 -170,50 -170,170l0 480zm29290 8220c0,650 -50,5520 -70,6700 0,600 -80,1200 -710,1200l-1480 0c-100,0 -170,50 -170,150l0 650c0,130 50,180 170,180 580,0 1330,-80 3490,-80 1810,0 2680,0 3160,0 150,0 200,-50 200,-180l0 -620c0,-130 -50,-180 -200,-180l-1230 0c-530,0 -780,-250 -800,-850 -30,-1750 -50,-5620 -50,-6290l0 -530c0,-180 70,-250 350,-250l9180 0c420,0 540,20 540,300l0 350c0,900 -50,4940 -70,6120 0,670 -70,1150 -670,1150l-1590 0c-150,0 -200,50 -200,180l0 620c0,100 50,180 150,180 760,0 1560,-80 3740,-80 1830,0 2680,0 3160,0 150,0 200,-50 200,-200l0 -590c0,-130 -50,-180 -220,-180l-1110 0c-750,0 -1000,-360 -1000,-1260 -30,-1430 -80,-6190 -80,-6990l0 -850c0,-930 50,-5160 50,-5520 0,-900 80,-1330 810,-1330l1130 0c150,0 200,-20 200,-180l0 -590c0,-150 -30,-200 -200,-200 -480,0 -1510,70 -3210,70 -1710,0 -2780,0 -3320,0 -120,0 -150,50 -150,150l0 650c0,130 50,180 180,180l1300 0c730,0 830,480 830,1280 0,300 70,3780 70,5210l0 250c0,330 -120,380 -490,380l-9280 0c-230,0 -300,-80 -300,-210l0 -420c0,-1400 50,-4710 50,-5060 0,-1000 120,-1430 980,-1430l1280 0c150,0 200,-50 200,-200l0 -650c0,-100 -80,-130 -250,-130 -480,0 -1380,80 -3340,80 -2210,0 -3010,0 -3510,0 -130,0 -200,50 -200,170l0 600c0,150 20,200 150,200l1170 0c940,0 1110,360 1110,1630 0,400 50,3790 50,5340l0 1080zm24100 9100c3080,0 5540,-2780 5540,-5510 0,-1630 -580,-2940 -1710,-4090 -750,-760 -2130,-1450 -3500,-1450 -840,0 -2070,200 -3370,1200 -1470,1150 -2160,2760 -2160,4040 0,1770 230,2700 1390,4080 1050,1250 2600,1730 3810,1730zm300 -750c-1180,0 -1910,-480 -2480,-1300 -810,-1160 -960,-2110 -960,-3510 0,-1910 350,-2940 1330,-3940 600,-650 1250,-810 1930,-810 1280,0 3310,1760 3310,4550 0,2680 -1230,5010 -3130,5010zm16570 -6490c0,-2460 130,-3120 150,-3340 30,-120 -70,-250 -220,-250 -80,0 -180,30 -300,30 -130,20 -250,50 -430,50l-2330 0c-250,0 -300,20 -300,220l0 430c0,120 120,170 550,170 630,50 1030,180 1080,880l0 5970c0,220 -150,550 -250,680 -480,600 -1480,1250 -2160,1250 -680,0 -1380,-50 -2010,-950 -800,-1150 -540,-2760 -540,-3760l0 -1790c0,-1480 70,-2660 100,-2880 20,-170 -100,-300 -280,-300 -80,0 -180,30 -280,30 -100,20 -200,50 -350,50l-2230 0c-230,0 -280,50 -280,200l0 450c0,120 130,150 560,170 570,80 920,260 950,950l0 2920c0,2760 -50,3580 970,4910 840,1080 1660,1150 2360,1150 1250,0 2710,-770 3420,-1760l50 0 190 1460c30,250 120,300 230,300 200,0 350,-50 500,-100l2640 -870c100,-30 150,-80 120,-230l-70 -330c-30,-100 -100,-150 -310,-100 -300,80 -670,80 -820,80 -300,0 -580,-110 -660,-880 -50,-530 -50,-1760 -50,-2960l0 -1850zm6400 7240c2120,0 3780,-1280 3810,-3300 -30,-1940 -1180,-2690 -3010,-3220 -1230,-350 -2410,-620 -2410,-2080 0,-1070 980,-1660 1930,-1660 980,0 1460,510 1750,990l860 1150c80,120 130,150 220,120l300 -100c130,-40 180,-120 180,-220l-380 -1760c-20,-150 -70,-280 -440,-450 -460,-220 -1110,-520 -2310,-520 -1880,0 -3510,1330 -3510,3050 0,1990 1470,2760 2960,3190 1880,520 2430,1180 2430,2310 0,1170 -1100,1700 -1980,1700 -1330,0 -1680,-630 -2180,-1550l-630 -1230c-50,-130 -130,-180 -230,-150l-320 70c-100,30 -180,80 -150,200l420 2390c30,120 30,270 150,350 310,220 1310,720 2540,720zm13840 -6960c400,0 700,-50 700,-410 0,-970 -800,-3680 -3690,-3680 -1250,0 -2510,220 -3580,1330 -1330,1330 -1580,3000 -1580,3980 0,1750 220,2680 1100,3960 930,1350 2510,1780 3940,1780 2230,0 3530,-1730 3990,-2730 120,-280 70,-350 0,-380l-330 -170c-80,-20 -180,30 -230,130 -420,820 -1500,1700 -3030,1700 -2000,0 -3560,-1850 -3560,-4310 0,-580 30,-980 80,-1200l6190 0zm-6090 -760c470,-1850 1520,-2590 2630,-2590 1630,0 1930,1660 1930,2240 0,220 -200,350 -680,350l-3880 0z"/>
   <path class="fil1" d="M302610 231690c0,-70 -30,-150 -200,-150l-980 0c-600,0 -750,-430 -470,-1130 170,-450 3130,-4710 4110,-6090 530,720 3990,6370 4140,6740 150,330 -100,480 -610,480l-980 0c-120,0 -150,80 -150,180l0 620c0,100 30,180 200,180 180,0 1540,-80 3540,-80 2110,0 2990,0 3190,0 170,0 200,-100 200,-200l0 -600c0,-100 -30,-180 -200,-180l-830 0c-480,0 -1080,-150 -1650,-670 -260,-230 -5090,-7750 -5420,-8230 950,-1300 4940,-6390 5420,-6710 220,-160 490,-330 1050,-330l1050 0c130,0 150,-50 150,-230l0 -570c0,-80 -20,-180 -200,-180 -250,0 -1150,80 -2530,80 -1430,0 -2460,0 -2740,0 -150,0 -170,50 -170,170l0 580c0,120 20,220 150,220l530 0c650,0 770,530 500,1030 -250,480 -3090,4360 -3790,5240 -600,-830 -2910,-4710 -3130,-5090 -330,-530 -410,-1180 730,-1180l870 0c210,0 230,-70 230,-220l0 -580c0,-70 -20,-170 -200,-170 -230,0 -1280,70 -3790,70 -2150,0 -3310,0 -3560,0 -100,0 -120,80 -120,200l0 580c0,100 20,200 120,200l1100 0c480,0 900,150 1130,370 580,580 4360,6250 5250,7550 -1230,1480 -4170,5940 -5700,7300 -500,420 -1030,730 -1430,730l-980 0c-120,0 -150,70 -150,170l0 570c0,130 30,230 150,230 230,0 1230,-70 2710,-70 2030,0 3010,0 3260,0 170,0 200,-80 200,-230l0 -600zm24030 -8050c0,650 -50,5520 -80,6700 0,600 -70,1200 -710,1200l-1470 0c-100,0 -180,50 -180,150l0 650c0,130 50,180 180,180 570,0 1320,-80 3480,-80 1810,0 2680,0 3160,0 150,0 200,-50 200,-180l0 -620c0,-130 -50,-180 -200,-180l-1230 0c-520,0 -770,-250 -800,-850 -20,-1750 -50,-5620 -50,-6290l0 -530c0,-180 80,-250 350,-250l9180 0c430,0 550,20 550,300l0 350c0,900 -50,4940 -70,6120 0,670 -80,1150 -680,1150l-1580 0c-150,0 -200,50 -200,180l0 620c0,100 50,180 150,180 750,0 1550,-80 3730,-80 1830,0 2680,0 3160,0 160,0 210,-50 210,-200l0 -590c0,-130 -50,-180 -230,-180l-1100 0c-760,0 -1010,-360 -1010,-1260 -20,-1430 -70,-6190 -70,-6990l0 -850c0,-930 50,-5160 50,-5520 0,-900 70,-1330 800,-1330l1130 0c150,0 200,-20 200,-180l0 -590c0,-150 -30,-200 -200,-200 -480,0 -1510,70 -3210,70 -1710,0 -2780,0 -3320,0 -120,0 -140,50 -140,150l0 650c0,130 50,180 170,180l1300 0c740,0 840,480 840,1280 0,300 70,3780 70,5210l0 250c0,330 -120,380 -500,380l-9280 0c-220,0 -300,-80 -300,-210l0 -420c0,-1400 50,-4710 50,-5060 0,-1000 130,-1430 980,-1430l1280 0c150,0 200,-50 200,-200l0 -650c0,-100 -80,-130 -250,-130 -480,0 -1380,80 -3340,80 -2210,0 -3010,0 -3510,0 -120,0 -200,50 -200,170l0 600c0,150 30,200 150,200l1180 0c930,0 1110,360 1110,1630 0,400 50,3790 50,5340l0 1080zm24090 9100c3080,0 5540,-2780 5540,-5510 0,-1630 -580,-2940 -1710,-4090 -750,-760 -2120,-1450 -3500,-1450 -830,0 -2060,200 -3360,1200 -1480,1150 -2170,2760 -2170,4040 0,1770 230,2700 1390,4080 1050,1250 2600,1730 3810,1730zm300 -750c-1180,0 -1910,-480 -2480,-1300 -810,-1160 -950,-2110 -950,-3510 0,-1910 340,-2940 1320,-3940 600,-650 1260,-810 1930,-810 1280,0 3310,1760 3310,4550 0,2680 -1230,5010 -3130,5010zm16570 -6490c0,-2460 130,-3120 150,-3340 30,-120 -70,-250 -220,-250 -80,0 -180,30 -300,30 -120,20 -250,50 -430,50l-2330 0c-250,0 -300,20 -300,220l0 430c0,120 120,170 550,170 630,50 1030,180 1080,880l0 5970c0,220 -150,550 -250,680 -480,600 -1480,1250 -2160,1250 -680,0 -1380,-50 -2010,-950 -800,-1150 -540,-2760 -540,-3760l0 -1790c0,-1480 70,-2660 100,-2880 20,-170 -100,-300 -280,-300 -80,0 -180,30 -280,30 -100,20 -200,50 -350,50l-2230 0c-230,0 -270,50 -270,200l0 450c0,120 120,150 550,170 580,80 920,260 950,950l0 2920c0,2760 -50,3580 980,4910 830,1080 1650,1150 2360,1150 1250,0 2700,-770 3410,-1760l50 0 200 1460c20,250 120,300 220,300 200,0 350,-50 500,-100l2640 -870c100,-30 150,-80 120,-230l-70 -330c-30,-100 -100,-150 -310,-100 -300,80 -670,80 -820,80 -300,0 -580,-110 -660,-880 -50,-530 -50,-1760 -50,-2960l0 -1850zm6400 7240c2130,0 3780,-1280 3810,-3300 -30,-1940 -1180,-2690 -3010,-3220 -1230,-350 -2410,-620 -2410,-2080 0,-1070 980,-1660 1930,-1660 980,0 1460,510 1760,990l850 1150c80,120 130,150 230,120l290 -100c130,-40 180,-120 180,-220l-370 -1760c-30,-150 -80,-280 -450,-450 -460,-220 -1100,-520 -2310,-520 -1880,0 -3510,1330 -3510,3050 0,1990 1480,2760 2960,3190 1880,520 2430,1180 2430,2310 0,1170 -1100,1700 -1980,1700 -1330,0 -1680,-630 -2180,-1550l-630 -1230c-50,-130 -130,-180 -230,-150l-320 70c-100,30 -170,80 -150,200l420 2390c30,120 30,270 150,350 310,220 1310,720 2540,720zm13840 -6960c400,0 700,-50 700,-410 0,-970 -800,-3680 -3690,-3680 -1250,0 -2510,220 -3580,1330 -1330,1330 -1580,3000 -1580,3980 0,1750 220,2680 1110,3960 920,1350 2500,1780 3930,1780 2230,0 3540,-1730 3990,-2730 120,-280 70,-350 0,-380l-330 -170c-70,-20 -170,30 -220,130 -430,820 -1510,1700 -3040,1700 -2000,0 -3560,-1850 -3560,-4310 0,-580 30,-980 80,-1200l6190 0zm-6090 -760c470,-1850 1530,-2590 2630,-2590 1630,0 1930,1660 1930,2240 0,220 -200,350 -670,350l-3890 0z"/>
   <path class="fil1" d="M167820 326620c0,100 20,170 120,170l650 0c530,0 780,260 1030,830 330,760 1500,4390 2110,6170l240 860c330,900 2360,6610 3170,8920 120,320 220,580 420,580 130,0 250,-130 350,-330 130,-250 3360,-8220 3660,-9050 430,-1060 2440,-6190 3090,-7000 470,-570 950,-980 1780,-980l680 0c140,0 170,-70 170,-170l0 -630c0,-120 -30,-170 -170,-170 -230,0 -860,70 -2690,70 -1580,0 -2730,0 -2960,0 -120,0 -150,50 -150,180l0 570c0,150 30,230 130,230l650 0c630,0 800,280 800,580 0,340 -150,800 -350,1430 -370,1100 -1330,3980 -1580,4660 -200,570 -2160,5740 -2680,6920l-50 0c-580,-1530 -2030,-5840 -2330,-6790 -450,-1410 -1380,-4390 -1530,-5290 -80,-360 -100,-660 -100,-860 0,-420 350,-650 1050,-650l1200 0c180,0 200,-100 200,-230l0 -570c0,-100 -20,-180 -250,-180 -220,0 -1350,80 -3460,80 -1950,0 -2780,0 -3030,0 -150,0 -170,50 -170,180l0 470zm20510 8270c0,1330 -80,6750 -130,7130 -100,640 -620,720 -1120,720l-1410 0c-130,0 -200,50 -200,150l0 680c0,100 70,150 200,150 280,0 1350,-80 3740,-80 2180,0 3180,0 3480,0 150,0 230,-50 230,-150l0 -650c0,-130 -80,-180 -210,-180l-1020 0c-800,0 -1180,-120 -1180,-900 0,-270 -80,-6060 -80,-6320l0 -1920c0,-310 80,-5850 80,-6090 0,-510 380,-710 880,-710l1170 0c130,0 210,-50 210,-180l0 -620c0,-100 -60,-180 -180,-180 -350,0 -1150,80 -3380,80 -2330,0 -3610,0 -3920,0 -100,0 -170,50 -170,150l0 670c0,100 70,150 200,150l1450 0c950,0 1210,260 1260,860 20,370 100,4890 100,5490l0 1750zm9300 0c0,1330 -80,6750 -130,7130 -90,640 -620,720 -1120,720l-1410 0c-120,0 -190,50 -190,150l0 680c0,100 70,150 190,150 280,0 1350,-80 3740,-80 2190,0 3190,0 3490,0 150,0 220,-50 220,-150l0 -650c0,-130 -70,-180 -200,-180l-1030 0c-800,0 -1180,-120 -1180,-900 0,-270 -70,-6060 -70,-6320l0 -1920c0,-310 70,-5850 70,-6090 0,-510 380,-710 890,-710l1170 0c130,0 200,-50 200,-180l0 -620c0,-100 -50,-180 -170,-180 -360,0 -1160,80 -3390,80 -2330,0 -3610,0 -3910,0 -100,0 -170,50 -170,150l0 670c0,100 70,150 200,150l1450 0c950,0 1200,260 1250,860 20,370 100,4890 100,5490l0 1750zm18080 -40c0,640 -50,5510 -70,6690 0,600 -80,1200 -710,1200l-1480 0c-100,0 -170,50 -170,150l0 650c0,130 50,180 170,180 580,0 1330,-80 3490,-80 1810,0 2680,0 3160,0 150,0 200,-50 200,-170l0 -630c0,-130 -50,-180 -200,-180l-1230 0c-530,0 -780,-250 -800,-850 -30,-1750 -50,-5610 -50,-6290l0 -530c0,-170 70,-240 350,-240l9180 0c420,0 540,20 540,290l0 350c0,910 -50,4940 -70,6120 0,680 -70,1150 -670,1150l-1590 0c-150,0 -200,50 -200,180l0 630c0,100 50,170 150,170 760,0 1560,-70 3740,-70 1830,0 2680,0 3160,0 150,0 200,-50 200,-200l0 -600c0,-130 -50,-180 -220,-180l-1110 0c-750,0 -1000,-350 -1000,-1260 -30,-1420 -80,-6190 -80,-6990l0 -850c0,-930 50,-5160 50,-5520 0,-900 80,-1330 810,-1330l1130 0c150,0 200,-20 200,-170l0 -600c0,-150 -30,-200 -200,-200 -480,0 -1510,70 -3210,70 -1710,0 -2780,0 -3320,0 -120,0 -150,50 -150,150l0 650c0,130 50,180 180,180l1300 0c730,0 830,480 830,1280 0,300 70,3780 70,5210l0 260c0,320 -120,370 -490,370l-9280 0c-230,0 -300,-70 -300,-200l0 -430c0,-1400 50,-4710 50,-5060 0,-1000 120,-1430 980,-1430l1280 0c150,0 200,-50 200,-200l0 -650c0,-100 -80,-130 -250,-130 -480,0 -1380,80 -3340,80 -2210,0 -3010,0 -3510,0 -130,0 -200,50 -200,170l0 600c0,150 20,200 150,200l1170 0c940,0 1110,360 1110,1640 0,390 50,3780 50,5340l0 1080zm24100 9090c3080,0 5540,-2780 5540,-5510 0,-1630 -580,-2940 -1710,-4090 -750,-750 -2130,-1450 -3500,-1450 -840,0 -2070,200 -3370,1200 -1470,1150 -2160,2760 -2160,4040 0,1780 230,2710 1390,4090 1050,1250 2600,1720 3810,1720zm300 -750c-1180,0 -1910,-480 -2480,-1300 -810,-1150 -960,-2110 -960,-3510 0,-1910 350,-2940 1330,-3940 600,-650 1250,-800 1930,-800 1280,0 3310,1750 3310,4540 0,2680 -1230,5010 -3130,5010zm16570 -6490c0,-2460 130,-3110 150,-3330 30,-130 -70,-260 -220,-260 -80,0 -180,30 -300,30 -130,20 -250,50 -430,50l-2330 0c-250,0 -300,20 -300,230l0 420c0,120 120,170 550,170 630,50 1030,180 1080,880l0 5970c0,230 -150,550 -250,680 -480,600 -1480,1250 -2160,1250 -680,0 -1380,-50 -2010,-950 -800,-1150 -540,-2760 -540,-3760l0 -1780c0,-1480 70,-2660 100,-2880 20,-180 -100,-310 -280,-310 -80,0 -180,30 -280,30 -100,20 -200,50 -350,50l-2230 0c-230,0 -280,50 -280,200l0 450c0,120 130,150 560,170 570,80 920,260 950,960l0 2910c0,2760 -50,3580 970,4910 840,1080 1660,1150 2360,1150 1250,0 2710,-770 3420,-1750l50 0 190 1450c30,250 120,300 230,300 200,0 350,-50 500,-100l2640 -870c100,-30 150,-80 120,-230l-70 -330c-30,-90 -100,-140 -310,-90 -300,70 -680,70 -820,70 -300,0 -580,-100 -660,-880 -50,-520 -50,-1750 -50,-2950l0 -1860zm6400 7240c2120,0 3780,-1280 3810,-3300 -30,-1940 -1180,-2690 -3010,-3210 -1230,-350 -2410,-630 -2410,-2090 0,-1070 980,-1650 1930,-1650 980,0 1460,500 1750,980l860 1150c80,130 130,150 220,130l300 -100c130,-50 180,-130 180,-230l-380 -1760c-20,-150 -70,-270 -440,-440 -460,-230 -1110,-530 -2310,-530 -1880,0 -3510,1330 -3510,3060 0,1980 1470,2750 2960,3180 1880,530 2430,1180 2430,2310 0,1170 -1100,1700 -1980,1700 -1330,0 -1680,-630 -2180,-1550l-630 -1230c-50,-130 -130,-180 -230,-150l-320 70c-100,30 -180,80 -150,200l420 2390c30,120 30,270 150,350 310,230 1310,720 2540,720zm13840 -6960c400,0 700,-50 700,-410 0,-970 -800,-3680 -3690,-3680 -1250,0 -2510,220 -3580,1330 -1330,1330 -1580,3010 -1580,3980 0,1760 220,2690 1100,3970 930,1350 2510,1770 3940,1770 2230,0 3530,-1720 3990,-2730 120,-270 70,-350 0,-370l-330 -180c-80,-20 -180,30 -230,130 -420,820 -1500,1700 -3030,1700 -2010,0 -3560,-1850 -3560,-4310 0,-580 30,-980 80,-1200l6190 0zm-6090 -760c470,-1850 1520,-2580 2630,-2580 1630,0 1930,1650 1930,2230 0,230 -200,350 -680,350l-3880 0z"/>
   <path class="fil1" d="M24440 110890c0,1320 -80,6740 -130,7120 -90,640 -620,720 -1120,720l-1410 0c-120,0 -190,50 -190,150l0 680c0,100 70,150 190,150 280,0 1350,-80 3740,-80 2190,0 3190,0 3490,0 150,0 220,-50 220,-140l0 -660c0,-130 -70,-180 -200,-180l-1030 0c-800,0 -1180,-120 -1180,-900 0,-270 -70,-6060 -70,-6320l0 -1920c0,-310 70,-5850 70,-6090 0,-510 380,-710 890,-710l1170 0c130,0 200,-50 200,-180l0 -620c0,-100 -50,-180 -170,-180 -360,0 -1160,80 -3390,80 -2330,0 -3610,0 -3910,0 -100,0 -170,50 -170,150l0 670c0,100 70,150 200,150l1450 0c950,0 1200,260 1250,860 20,370 100,4890 100,5490l0 1760zm9310 0c0,1320 -80,6740 -130,7120 -100,640 -630,720 -1120,720l-1410 0c-130,0 -200,50 -200,150l0 680c0,100 70,150 200,150 280,0 1350,-80 3740,-80 2180,0 3180,0 3480,0 150,0 230,-50 230,-140l0 -660c0,-130 -80,-180 -210,-180l-1020 0c-810,0 -1180,-120 -1180,-900 0,-270 -80,-6060 -80,-6320l0 -1920c0,-310 80,-5850 80,-6090 0,-510 370,-710 880,-710l1170 0c130,0 210,-50 210,-180l0 -620c0,-100 -60,-180 -180,-180 -360,0 -1150,80 -3380,80 -2330,0 -3610,0 -3920,0 -100,0 -170,50 -170,150l0 670c0,100 70,150 200,150l1450 0c950,0 1210,260 1260,860 20,370 100,4890 100,5490l0 1760zm9300 0c0,1320 -80,6740 -130,7120 -100,640 -620,720 -1120,720l-1410 0c-130,0 -200,50 -200,150l0 680c0,100 70,150 200,150 280,0 1350,-80 3740,-80 2180,0 3190,0 3480,0 150,0 230,-50 230,-140l0 -660c0,-130 -80,-180 -200,-180l-1030 0c-800,0 -1180,-120 -1180,-900 0,-270 -80,-6060 -80,-6320l0 -1920c0,-310 80,-5850 80,-6090 0,-510 380,-710 880,-710l1180 0c120,0 200,-50 200,-180l0 -620c0,-100 -50,-180 -180,-180 -350,0 -1150,80 -3380,80 -2330,0 -3610,0 -3910,0 -100,0 -180,50 -180,150l0 670c0,100 80,150 200,150l1450 0c960,0 1210,260 1260,860 20,370 100,4890 100,5490l0 1760z"/>
   <path class="fil1" d="M386990 118880c0,-70 -30,-150 -200,-150l-980 0c-610,0 -760,-420 -480,-1130 180,-450 3130,-4710 4110,-6090 530,730 3990,6370 4140,6750 150,320 -100,470 -600,470l-980 0c-120,0 -150,80 -150,180l0 630c0,90 30,170 200,170 170,0 1530,-80 3540,-80 2100,0 2980,0 3180,0 180,0 200,-90 200,-190l0 -610c0,-100 -20,-180 -200,-180l-820 0c-490,0 -1080,-150 -1660,-670 -260,-230 -5090,-7750 -5420,-8220 960,-1310 4940,-6400 5420,-6720 220,-160 500,-330 1050,-330l1050 0c130,0 150,-50 150,-230l0 -570c0,-80 -20,-180 -200,-180 -240,0 -1150,80 -2530,80 -1430,0 -2460,0 -2730,0 -150,0 -180,50 -180,170l0 580c0,120 30,220 160,220l520 0c650,0 780,530 500,1030 -250,480 -3090,4370 -3780,5240 -610,-820 -2920,-4710 -3140,-5090 -320,-520 -400,-1180 730,-1180l870 0c210,0 230,-70 230,-220l0 -580c0,-70 -20,-170 -200,-170 -230,0 -1280,70 -3790,70 -2150,0 -3300,0 -3560,0 -100,0 -120,80 -120,210l0 570c0,100 20,200 120,200l1100 0c480,0 910,150 1130,380 580,570 4370,6240 5250,7550 -1230,1470 -4170,5940 -5690,7290 -510,420 -1030,730 -1430,730l-980 0c-130,0 -150,70 -150,170l0 580c0,120 20,220 150,220 220,0 1230,-70 2700,-70 2040,0 3010,0 3270,0 170,0 200,-80 200,-220l0 -610zm15240 -7990c0,1320 -80,6740 -130,7120 -100,640 -620,720 -1120,720l-1410 0c-120,0 -200,50 -200,150l0 680c0,100 80,150 200,150 280,0 1350,-80 3740,-80 2180,0 3190,0 3480,0 150,0 230,-50 230,-140l0 -660c0,-130 -80,-180 -200,-180l-1030 0c-800,0 -1180,-120 -1180,-900 0,-270 -80,-6060 -80,-6320l0 -1920c0,-310 80,-5850 80,-6090 0,-510 380,-710 880,-710l1180 0c120,0 200,-50 200,-180l0 -620c0,-100 -50,-180 -170,-180 -360,0 -1160,80 -3390,80 -2330,0 -3610,0 -3910,0 -100,0 -170,50 -170,150l0 670c0,100 70,150 190,150l1450 0c960,0 1210,260 1260,860 20,370 100,4890 100,5490l0 1760z"/>
   <path class="fil1" d="M27130 325520c0,100 20,170 120,170l650 0c530,0 780,250 1030,830 330,750 1500,4390 2110,6170l240 850c330,910 2360,6620 3170,8920 130,330 220,590 420,590 130,0 250,-130 350,-330 130,-260 3360,-8220 3660,-9060 430,-1050 2440,-6190 3090,-6990 470,-580 950,-980 1780,-980l680 0c150,0 170,-70 170,-170l0 -630c0,-130 -20,-170 -170,-170 -230,0 -860,70 -2690,70 -1580,0 -2730,0 -2960,0 -120,0 -150,50 -150,170l0 580c0,150 30,230 130,230l650 0c630,0 800,270 800,570 0,350 -150,810 -350,1430 -370,1100 -1330,3990 -1570,4660 -210,580 -2170,5750 -2690,6930l-50 0c-580,-1530 -2030,-5850 -2330,-6800 -450,-1410 -1380,-4380 -1530,-5290 -80,-350 -100,-650 -100,-850 0,-430 350,-650 1050,-650l1200 0c180,0 200,-100 200,-230l0 -580c0,-100 -20,-170 -250,-170 -220,0 -1350,70 -3460,70 -1950,0 -2780,0 -3030,0 -150,0 -170,50 -170,180l0 480z"/>
   <path class="fil1" d="M384750 333790c0,1330 -70,6750 -120,7120 -100,650 -630,730 -1130,730l-1400 0c-130,0 -200,50 -200,150l0 670c0,110 70,160 200,160 270,0 1350,-80 3730,-80 2190,0 3190,0 3490,0 150,0 220,-50 220,-150l0 -650c0,-130 -70,-180 -200,-180l-1020 0c-810,0 -1180,-120 -1180,-900 0,-270 -80,-6060 -80,-6320l0 -1930c0,-300 80,-5840 80,-6090 0,-500 370,-700 880,-700l1170 0c130,0 210,-50 210,-180l0 -620c0,-100 -60,-180 -180,-180 -360,0 -1150,80 -3390,80 -2330,0 -3610,0 -3910,0 -100,0 -170,40 -170,140l0 680c0,100 70,150 200,150l1450 0c950,0 1210,250 1250,850 30,380 100,4890 100,5500l0 1750zm11540 8000c0,-70 -30,-150 -200,-150l-980 0c-600,0 -750,-430 -480,-1130 180,-450 3140,-4710 4120,-6090 520,720 3990,6370 4140,6740 150,330 -100,480 -610,480l-980 0c-120,0 -150,80 -150,180l0 620c0,100 30,180 200,180 180,0 1540,-80 3540,-80 2100,0 2990,0 3180,0 180,0 200,-100 200,-200l0 -600c0,-100 -20,-180 -200,-180l-820 0c-480,0 -1080,-150 -1660,-680 -250,-220 -5090,-7740 -5410,-8220 950,-1300 4940,-6400 5410,-6720 220,-150 500,-320 1060,-320l1050 0c130,0 150,-50 150,-230l0 -570c0,-80 -20,-180 -200,-180 -250,0 -1150,80 -2530,80 -1430,0 -2460,0 -2740,0 -150,0 -180,40 -180,170l0 580c0,120 30,220 160,220l530 0c640,0 770,520 490,1030 -250,480 -3080,4360 -3780,5240 -600,-830 -2910,-4710 -3130,-5090 -330,-530 -410,-1180 720,-1180l880 0c200,0 220,-70 220,-220l0 -580c0,-70 -20,-170 -190,-170 -230,0 -1280,70 -3790,70 -2160,0 -3310,0 -3560,0 -100,0 -120,70 -120,200l0 580c0,100 20,200 120,200l1100 0c470,0 900,150 1130,370 570,580 4360,6240 5240,7550 -1230,1480 -4160,5940 -5690,7290 -500,430 -1030,740 -1430,740l-980 0c-130,0 -150,70 -150,170l0 570c0,130 20,230 150,230 230,0 1230,-70 2710,-70 2030,0 3000,0 3260,0 170,0 200,-80 200,-230l0 -600z"/>
  </g>
 </g>
</svg>
